<mxfile host="app.diagrams.net" agent="Mozilla/5.0 (Windows NT 10.0; Win64; x64) AppleWebKit/537.36 (KHTML, like Gecko) Chrome/129.0.0.0 Safari/537.36" version="24.7.17">
  <diagram id="hHYA7nyM4EVOkoQlwSno" name="PÃ¡gina-1">
    <mxGraphModel dx="1380" dy="634" grid="0" gridSize="10" guides="1" tooltips="1" connect="1" arrows="1" fold="1" page="0" pageScale="1" pageWidth="1169" pageHeight="827" math="0" shadow="0">
      <root>
        <mxCell id="0" />
        <mxCell id="1" parent="0" />
        <mxCell id="6Xl_yp25UxLdCeFqiYun-1" value="Pessoa" style="swimlane;fontStyle=1;align=center;verticalAlign=top;childLayout=stackLayout;horizontal=1;startSize=26;horizontalStack=0;resizeParent=1;resizeParentMax=0;resizeLast=0;collapsible=1;marginBottom=0;whiteSpace=wrap;html=1;" parent="1" vertex="1">
          <mxGeometry x="84" y="107" width="160" height="114" as="geometry" />
        </mxCell>
        <mxCell id="6Xl_yp25UxLdCeFqiYun-2" value="- email:String&lt;div&gt;- nome:String&lt;br&gt;&lt;/div&gt;" style="text;align=left;verticalAlign=top;spacingLeft=4;spacingRight=4;overflow=hidden;rotatable=0;points=[[0,0.5],[1,0.5]];portConstraint=eastwest;whiteSpace=wrap;html=1;" parent="6Xl_yp25UxLdCeFqiYun-1" vertex="1">
          <mxGeometry y="26" width="160" height="40" as="geometry" />
        </mxCell>
        <mxCell id="6Xl_yp25UxLdCeFqiYun-3" value="" style="line;strokeWidth=1;align=left;verticalAlign=middle;spacingTop=-1;spacingLeft=3;spacingRight=3;rotatable=0;labelPosition=right;points=[];portConstraint=eastwest;" parent="6Xl_yp25UxLdCeFqiYun-1" vertex="1">
          <mxGeometry y="66" width="160" height="8" as="geometry" />
        </mxCell>
        <mxCell id="6Xl_yp25UxLdCeFqiYun-4" value="- cadastro(): boolean&lt;br&gt;- login(): boolean" style="text;align=left;verticalAlign=top;spacingLeft=4;spacingRight=4;overflow=hidden;rotatable=0;points=[[0,0.5],[1,0.5]];portConstraint=eastwest;whiteSpace=wrap;html=1;" parent="6Xl_yp25UxLdCeFqiYun-1" vertex="1">
          <mxGeometry y="74" width="160" height="40" as="geometry" />
        </mxCell>
        <mxCell id="6Xl_yp25UxLdCeFqiYun-59" style="rounded=0;orthogonalLoop=1;jettySize=auto;html=1;" parent="1" source="6Xl_yp25UxLdCeFqiYun-5" target="6Xl_yp25UxLdCeFqiYun-21" edge="1">
          <mxGeometry relative="1" as="geometry" />
        </mxCell>
        <mxCell id="6Xl_yp25UxLdCeFqiYun-5" value="Aluno" style="swimlane;fontStyle=1;align=center;verticalAlign=top;childLayout=stackLayout;horizontal=1;startSize=26;horizontalStack=0;resizeParent=1;resizeParentMax=0;resizeLast=0;collapsible=1;marginBottom=0;whiteSpace=wrap;html=1;" parent="1" vertex="1">
          <mxGeometry x="265" y="252" width="187" height="108" as="geometry" />
        </mxCell>
        <mxCell id="6Xl_yp25UxLdCeFqiYun-6" value="- matricula:String&lt;br&gt;- curso:String" style="text;align=left;verticalAlign=top;spacingLeft=4;spacingRight=4;overflow=hidden;rotatable=0;points=[[0,0.5],[1,0.5]];portConstraint=eastwest;whiteSpace=wrap;html=1;" parent="6Xl_yp25UxLdCeFqiYun-5" vertex="1">
          <mxGeometry y="26" width="187" height="37" as="geometry" />
        </mxCell>
        <mxCell id="6Xl_yp25UxLdCeFqiYun-7" value="" style="line;strokeWidth=1;align=left;verticalAlign=middle;spacingTop=-1;spacingLeft=3;spacingRight=3;rotatable=0;labelPosition=right;points=[];portConstraint=eastwest;" parent="6Xl_yp25UxLdCeFqiYun-5" vertex="1">
          <mxGeometry y="63" width="187" height="8" as="geometry" />
        </mxCell>
        <mxCell id="6Xl_yp25UxLdCeFqiYun-8" value="+ entrarSala(SalaAula): boolean&lt;div&gt;- comentar(Comentario): boolean&lt;/div&gt;" style="text;align=left;verticalAlign=top;spacingLeft=4;spacingRight=4;overflow=hidden;rotatable=0;points=[[0,0.5],[1,0.5]];portConstraint=eastwest;whiteSpace=wrap;html=1;" parent="6Xl_yp25UxLdCeFqiYun-5" vertex="1">
          <mxGeometry y="71" width="187" height="37" as="geometry" />
        </mxCell>
        <mxCell id="6Xl_yp25UxLdCeFqiYun-58" style="edgeStyle=orthogonalEdgeStyle;rounded=0;orthogonalLoop=1;jettySize=auto;html=1;startArrow=classic;startFill=1;" parent="1" source="6Xl_yp25UxLdCeFqiYun-9" target="6Xl_yp25UxLdCeFqiYun-21" edge="1">
          <mxGeometry relative="1" as="geometry" />
        </mxCell>
        <mxCell id="6Xl_yp25UxLdCeFqiYun-9" value="Professor" style="swimlane;fontStyle=1;align=center;verticalAlign=top;childLayout=stackLayout;horizontal=1;startSize=26;horizontalStack=0;resizeParent=1;resizeParentMax=0;resizeLast=0;collapsible=1;marginBottom=0;whiteSpace=wrap;html=1;" parent="1" vertex="1">
          <mxGeometry x="67" y="418.5" width="192" height="137" as="geometry" />
        </mxCell>
        <mxCell id="6Xl_yp25UxLdCeFqiYun-10" value="- materias[]:Materia&lt;div&gt;- salas[]: SalaAula&lt;/div&gt;" style="text;align=left;verticalAlign=top;spacingLeft=4;spacingRight=4;overflow=hidden;rotatable=0;points=[[0,0.5],[1,0.5]];portConstraint=eastwest;whiteSpace=wrap;html=1;" parent="6Xl_yp25UxLdCeFqiYun-9" vertex="1">
          <mxGeometry y="26" width="192" height="44" as="geometry" />
        </mxCell>
        <mxCell id="6Xl_yp25UxLdCeFqiYun-11" value="" style="line;strokeWidth=1;align=left;verticalAlign=middle;spacingTop=-1;spacingLeft=3;spacingRight=3;rotatable=0;labelPosition=right;points=[];portConstraint=eastwest;" parent="6Xl_yp25UxLdCeFqiYun-9" vertex="1">
          <mxGeometry y="70" width="192" height="8" as="geometry" />
        </mxCell>
        <mxCell id="6Xl_yp25UxLdCeFqiYun-12" value="- soliciatarCadInstituicao: boolean&lt;br&gt;- criarSala(SalaAula): SalaAula&lt;br&gt;- notasAlunos" style="text;align=left;verticalAlign=top;spacingLeft=4;spacingRight=4;overflow=hidden;rotatable=0;points=[[0,0.5],[1,0.5]];portConstraint=eastwest;whiteSpace=wrap;html=1;" parent="6Xl_yp25UxLdCeFqiYun-9" vertex="1">
          <mxGeometry y="78" width="192" height="59" as="geometry" />
        </mxCell>
        <mxCell id="6Xl_yp25UxLdCeFqiYun-21" value="SalaAula" style="swimlane;fontStyle=1;align=center;verticalAlign=top;childLayout=stackLayout;horizontal=1;startSize=26;horizontalStack=0;resizeParent=1;resizeParentMax=0;resizeLast=0;collapsible=1;marginBottom=0;whiteSpace=wrap;html=1;" parent="1" vertex="1">
          <mxGeometry x="380" y="401" width="243" height="172" as="geometry" />
        </mxCell>
        <mxCell id="6Xl_yp25UxLdCeFqiYun-22" value="- nomeSala:String&lt;div&gt;- materia: Materia&lt;br&gt;- professor:Professor&lt;br&gt;- turma[]:Aluno&lt;div&gt;- conteudos[]:Conteudo&lt;br&gt;- quizzes[]: Quizz&lt;/div&gt;&lt;/div&gt;" style="text;align=left;verticalAlign=top;spacingLeft=4;spacingRight=4;overflow=hidden;rotatable=0;points=[[0,0.5],[1,0.5]];portConstraint=eastwest;whiteSpace=wrap;html=1;" parent="6Xl_yp25UxLdCeFqiYun-21" vertex="1">
          <mxGeometry y="26" width="243" height="98" as="geometry" />
        </mxCell>
        <mxCell id="6Xl_yp25UxLdCeFqiYun-23" value="" style="line;strokeWidth=1;align=left;verticalAlign=middle;spacingTop=-1;spacingLeft=3;spacingRight=3;rotatable=0;labelPosition=right;points=[];portConstraint=eastwest;" parent="6Xl_yp25UxLdCeFqiYun-21" vertex="1">
          <mxGeometry y="124" width="243" height="8" as="geometry" />
        </mxCell>
        <mxCell id="6Xl_yp25UxLdCeFqiYun-24" value="- adicionarAluno(Professor, Aluno): boolean&lt;br&gt;- removerAluno(Professor, Aluno): boolean" style="text;align=left;verticalAlign=top;spacingLeft=4;spacingRight=4;overflow=hidden;rotatable=0;points=[[0,0.5],[1,0.5]];portConstraint=eastwest;whiteSpace=wrap;html=1;" parent="6Xl_yp25UxLdCeFqiYun-21" vertex="1">
          <mxGeometry y="132" width="243" height="40" as="geometry" />
        </mxCell>
        <mxCell id="6Xl_yp25UxLdCeFqiYun-29" value="Conteudo" style="swimlane;fontStyle=1;align=center;verticalAlign=top;childLayout=stackLayout;horizontal=1;startSize=26;horizontalStack=0;resizeParent=1;resizeParentMax=0;resizeLast=0;collapsible=1;marginBottom=0;whiteSpace=wrap;html=1;" parent="1" vertex="1">
          <mxGeometry x="382" y="635" width="239" height="186" as="geometry" />
        </mxCell>
        <mxCell id="6Xl_yp25UxLdCeFqiYun-30" value="+ titulo:String&lt;div&gt;+ descricao:String&lt;/div&gt;&lt;div&gt;+ arquivo: ?&lt;br&gt;+ link:String&lt;br&gt;+ comentarios[]: Comentario&lt;br&gt;- avaliacao: AvaliacaoConteudo&lt;/div&gt;" style="text;align=left;verticalAlign=top;spacingLeft=4;spacingRight=4;overflow=hidden;rotatable=0;points=[[0,0.5],[1,0.5]];portConstraint=eastwest;whiteSpace=wrap;html=1;" parent="6Xl_yp25UxLdCeFqiYun-29" vertex="1">
          <mxGeometry y="26" width="239" height="99" as="geometry" />
        </mxCell>
        <mxCell id="6Xl_yp25UxLdCeFqiYun-31" value="" style="line;strokeWidth=1;align=left;verticalAlign=middle;spacingTop=-1;spacingLeft=3;spacingRight=3;rotatable=0;labelPosition=right;points=[];portConstraint=eastwest;" parent="6Xl_yp25UxLdCeFqiYun-29" vertex="1">
          <mxGeometry y="125" width="239" height="8" as="geometry" />
        </mxCell>
        <mxCell id="6Xl_yp25UxLdCeFqiYun-32" value="- adicionarConteudo(Professor): Conteudo&lt;br&gt;- editarConteudo(Professor): Conteudo&lt;br&gt;- excluirConteudo(Professor): boolean" style="text;align=left;verticalAlign=top;spacingLeft=4;spacingRight=4;overflow=hidden;rotatable=0;points=[[0,0.5],[1,0.5]];portConstraint=eastwest;whiteSpace=wrap;html=1;" parent="6Xl_yp25UxLdCeFqiYun-29" vertex="1">
          <mxGeometry y="133" width="239" height="53" as="geometry" />
        </mxCell>
        <mxCell id="6Xl_yp25UxLdCeFqiYun-43" value="Comentario" style="swimlane;fontStyle=1;align=center;verticalAlign=top;childLayout=stackLayout;horizontal=1;startSize=26;horizontalStack=0;resizeParent=1;resizeParentMax=0;resizeLast=0;collapsible=1;marginBottom=0;whiteSpace=wrap;html=1;" parent="1" vertex="1">
          <mxGeometry x="701" y="655.5" width="280" height="130" as="geometry" />
        </mxCell>
        <mxCell id="6Xl_yp25UxLdCeFqiYun-44" value="- texto:String" style="text;align=left;verticalAlign=top;spacingLeft=4;spacingRight=4;overflow=hidden;rotatable=0;points=[[0,0.5],[1,0.5]];portConstraint=eastwest;whiteSpace=wrap;html=1;" parent="6Xl_yp25UxLdCeFqiYun-43" vertex="1">
          <mxGeometry y="26" width="280" height="26" as="geometry" />
        </mxCell>
        <mxCell id="6Xl_yp25UxLdCeFqiYun-45" value="" style="line;strokeWidth=1;align=left;verticalAlign=middle;spacingTop=-1;spacingLeft=3;spacingRight=3;rotatable=0;labelPosition=right;points=[];portConstraint=eastwest;" parent="6Xl_yp25UxLdCeFqiYun-43" vertex="1">
          <mxGeometry y="52" width="280" height="8" as="geometry" />
        </mxCell>
        <mxCell id="6Xl_yp25UxLdCeFqiYun-46" value="- comentarConteudo(Conteudo): Comentario&lt;br&gt;- comentarForum(Forum,Publicacao): Comentario&lt;br&gt;- editarComentario(): Comentario&lt;div&gt;- excluirComentario(): boolean&lt;br&gt;&lt;/div&gt;" style="text;align=left;verticalAlign=top;spacingLeft=4;spacingRight=4;overflow=hidden;rotatable=0;points=[[0,0.5],[1,0.5]];portConstraint=eastwest;whiteSpace=wrap;html=1;" parent="6Xl_yp25UxLdCeFqiYun-43" vertex="1">
          <mxGeometry y="60" width="280" height="70" as="geometry" />
        </mxCell>
        <mxCell id="6Xl_yp25UxLdCeFqiYun-47" value="Forum" style="swimlane;fontStyle=1;align=center;verticalAlign=top;childLayout=stackLayout;horizontal=1;startSize=26;horizontalStack=0;resizeParent=1;resizeParentMax=0;resizeLast=0;collapsible=1;marginBottom=0;whiteSpace=wrap;html=1;" parent="1" vertex="1">
          <mxGeometry x="744.5" y="401" width="193" height="146" as="geometry" />
        </mxCell>
        <mxCell id="6Xl_yp25UxLdCeFqiYun-48" value="- nome:String&lt;br&gt;- descricao:String&lt;div&gt;- publicacoes[]:Publicacao&lt;/div&gt;" style="text;align=left;verticalAlign=top;spacingLeft=4;spacingRight=4;overflow=hidden;rotatable=0;points=[[0,0.5],[1,0.5]];portConstraint=eastwest;whiteSpace=wrap;html=1;" parent="6Xl_yp25UxLdCeFqiYun-47" vertex="1">
          <mxGeometry y="26" width="193" height="57" as="geometry" />
        </mxCell>
        <mxCell id="6Xl_yp25UxLdCeFqiYun-49" value="" style="line;strokeWidth=1;align=left;verticalAlign=middle;spacingTop=-1;spacingLeft=3;spacingRight=3;rotatable=0;labelPosition=right;points=[];portConstraint=eastwest;" parent="6Xl_yp25UxLdCeFqiYun-47" vertex="1">
          <mxGeometry y="83" width="193" height="8" as="geometry" />
        </mxCell>
        <mxCell id="6Xl_yp25UxLdCeFqiYun-50" value="- criarForum(): Forum&lt;div&gt;- criarForum(Comentario): Forum&lt;/div&gt;" style="text;align=left;verticalAlign=top;spacingLeft=4;spacingRight=4;overflow=hidden;rotatable=0;points=[[0,0.5],[1,0.5]];portConstraint=eastwest;whiteSpace=wrap;html=1;" parent="6Xl_yp25UxLdCeFqiYun-47" vertex="1">
          <mxGeometry y="91" width="193" height="55" as="geometry" />
        </mxCell>
        <mxCell id="6Xl_yp25UxLdCeFqiYun-51" value="" style="endArrow=diamondThin;endFill=1;endSize=24;html=1;rounded=0;" parent="1" source="6Xl_yp25UxLdCeFqiYun-29" target="6Xl_yp25UxLdCeFqiYun-21" edge="1">
          <mxGeometry width="160" relative="1" as="geometry">
            <mxPoint x="259.4999999999999" y="865.4999999999999" as="sourcePoint" />
            <mxPoint x="419.4999999999999" y="865.4999999999999" as="targetPoint" />
          </mxGeometry>
        </mxCell>
        <mxCell id="6Xl_yp25UxLdCeFqiYun-52" value="" style="endArrow=block;html=1;rounded=0;endFill=0;" parent="1" source="6Xl_yp25UxLdCeFqiYun-9" target="6Xl_yp25UxLdCeFqiYun-1" edge="1">
          <mxGeometry width="50" height="50" relative="1" as="geometry">
            <mxPoint x="432" y="228" as="sourcePoint" />
            <mxPoint x="482" y="178" as="targetPoint" />
          </mxGeometry>
        </mxCell>
        <mxCell id="6Xl_yp25UxLdCeFqiYun-54" value="" style="endArrow=block;html=1;rounded=0;endFill=0;" parent="1" source="6Xl_yp25UxLdCeFqiYun-5" target="6Xl_yp25UxLdCeFqiYun-1" edge="1">
          <mxGeometry width="50" height="50" relative="1" as="geometry">
            <mxPoint x="260" y="321" as="sourcePoint" />
            <mxPoint x="260" y="254" as="targetPoint" />
          </mxGeometry>
        </mxCell>
        <mxCell id="6Xl_yp25UxLdCeFqiYun-61" value="" style="endArrow=diamondThin;endFill=1;endSize=24;html=1;rounded=0;" parent="1" source="6Xl_yp25UxLdCeFqiYun-43" target="6Xl_yp25UxLdCeFqiYun-29" edge="1">
          <mxGeometry width="160" relative="1" as="geometry">
            <mxPoint x="432" y="732" as="sourcePoint" />
            <mxPoint x="346" y="731" as="targetPoint" />
          </mxGeometry>
        </mxCell>
        <mxCell id="6Xl_yp25UxLdCeFqiYun-62" value="" style="endArrow=diamondThin;endFill=0;endSize=24;html=1;rounded=0;" parent="1" source="6Xl_yp25UxLdCeFqiYun-43" target="6Xl_yp25UxLdCeFqiYun-47" edge="1">
          <mxGeometry width="160" relative="1" as="geometry">
            <mxPoint x="549" y="441" as="sourcePoint" />
            <mxPoint x="599" y="359" as="targetPoint" />
          </mxGeometry>
        </mxCell>
        <mxCell id="6Xl_yp25UxLdCeFqiYun-72" value="" style="endArrow=diamondThin;endFill=1;endSize=24;html=1;rounded=0;" parent="1" target="6Xl_yp25UxLdCeFqiYun-29" edge="1">
          <mxGeometry width="160" relative="1" as="geometry">
            <mxPoint x="769.03412462908" y="851" as="sourcePoint" />
            <mxPoint x="573" y="852" as="targetPoint" />
          </mxGeometry>
        </mxCell>
        <mxCell id="6Xl_yp25UxLdCeFqiYun-73" value="*" style="text;html=1;align=center;verticalAlign=middle;resizable=0;points=[];autosize=1;" parent="1" vertex="1">
          <mxGeometry x="505" y="612" width="23" height="26" as="geometry" />
        </mxCell>
        <mxCell id="6Xl_yp25UxLdCeFqiYun-74" value="1" style="text;html=1;align=center;verticalAlign=middle;resizable=0;points=[];autosize=1;" parent="1" vertex="1">
          <mxGeometry x="504" y="571" width="25" height="26" as="geometry" />
        </mxCell>
        <mxCell id="6Xl_yp25UxLdCeFqiYun-75" value="1" style="text;html=1;align=center;verticalAlign=middle;resizable=0;points=[];autosize=1;" parent="1" vertex="1">
          <mxGeometry x="621" y="688" width="25" height="26" as="geometry" />
        </mxCell>
        <mxCell id="6Xl_yp25UxLdCeFqiYun-76" value="*" style="text;html=1;align=center;verticalAlign=middle;resizable=0;points=[];autosize=1;" parent="1" vertex="1">
          <mxGeometry x="676" y="689" width="23" height="26" as="geometry" />
        </mxCell>
        <mxCell id="6Xl_yp25UxLdCeFqiYun-80" value="1" style="text;html=1;align=center;verticalAlign=middle;resizable=0;points=[];autosize=1;" parent="1" vertex="1">
          <mxGeometry x="259" y="460" width="25" height="26" as="geometry" />
        </mxCell>
        <mxCell id="6Xl_yp25UxLdCeFqiYun-81" value="*" style="text;html=1;align=center;verticalAlign=middle;resizable=0;points=[];autosize=1;" parent="1" vertex="1">
          <mxGeometry x="350" y="461" width="23" height="26" as="geometry" />
        </mxCell>
        <mxCell id="6Xl_yp25UxLdCeFqiYun-82" value="*" style="text;html=1;align=center;verticalAlign=middle;resizable=0;points=[];autosize=1;" parent="1" vertex="1">
          <mxGeometry x="761" y="825" width="23" height="26" as="geometry" />
        </mxCell>
        <mxCell id="6Xl_yp25UxLdCeFqiYun-83" value="1..*" style="text;html=1;align=center;verticalAlign=middle;resizable=0;points=[];autosize=1;" parent="1" vertex="1">
          <mxGeometry x="621" y="759.5" width="36" height="26" as="geometry" />
        </mxCell>
        <mxCell id="6Xl_yp25UxLdCeFqiYun-92" value="Quizz" style="swimlane;fontStyle=1;align=center;verticalAlign=top;childLayout=stackLayout;horizontal=1;startSize=26;horizontalStack=0;resizeParent=1;resizeParentMax=0;resizeLast=0;collapsible=1;marginBottom=0;whiteSpace=wrap;html=1;" parent="1" vertex="1">
          <mxGeometry x="38" y="631" width="263" height="186" as="geometry" />
        </mxCell>
        <mxCell id="6Xl_yp25UxLdCeFqiYun-93" value="- titulo:String&lt;br&gt;- descricao:String&lt;div&gt;- conteudo:String&lt;/div&gt;&lt;div&gt;- perguntas[]: String&lt;/div&gt;&lt;div&gt;- respostas[]: String&lt;/div&gt;" style="text;align=left;verticalAlign=top;spacingLeft=4;spacingRight=4;overflow=hidden;rotatable=0;points=[[0,0.5],[1,0.5]];portConstraint=eastwest;whiteSpace=wrap;html=1;" parent="6Xl_yp25UxLdCeFqiYun-92" vertex="1">
          <mxGeometry y="26" width="263" height="83" as="geometry" />
        </mxCell>
        <mxCell id="6Xl_yp25UxLdCeFqiYun-94" value="" style="line;strokeWidth=1;align=left;verticalAlign=middle;spacingTop=-1;spacingLeft=3;spacingRight=3;rotatable=0;labelPosition=right;points=[];portConstraint=eastwest;" parent="6Xl_yp25UxLdCeFqiYun-92" vertex="1">
          <mxGeometry y="109" width="263" height="8" as="geometry" />
        </mxCell>
        <mxCell id="6Xl_yp25UxLdCeFqiYun-95" value="- criarQuizz(Professor): Quizz&lt;div&gt;- excluirQuizz(Professor): boolean&lt;br&gt;- editarQuizz(Professor, Quizz): Quizz&lt;br&gt;- avaliarRespostas(Professor, Aluno, Quizz): int&lt;/div&gt;" style="text;align=left;verticalAlign=top;spacingLeft=4;spacingRight=4;overflow=hidden;rotatable=0;points=[[0,0.5],[1,0.5]];portConstraint=eastwest;whiteSpace=wrap;html=1;" parent="6Xl_yp25UxLdCeFqiYun-92" vertex="1">
          <mxGeometry y="117" width="263" height="69" as="geometry" />
        </mxCell>
        <mxCell id="6Xl_yp25UxLdCeFqiYun-96" value="1" style="text;html=1;align=center;verticalAlign=middle;resizable=0;points=[];autosize=1;" parent="1" vertex="1">
          <mxGeometry x="135.5" y="219" width="25" height="26" as="geometry" />
        </mxCell>
        <mxCell id="6Xl_yp25UxLdCeFqiYun-97" value="1..*" style="text;html=1;align=center;verticalAlign=middle;resizable=0;points=[];autosize=1;" parent="1" vertex="1">
          <mxGeometry x="130" y="393" width="36" height="26" as="geometry" />
        </mxCell>
        <mxCell id="6Xl_yp25UxLdCeFqiYun-98" value="1" style="text;html=1;align=center;verticalAlign=middle;resizable=0;points=[];autosize=1;" parent="1" vertex="1">
          <mxGeometry x="248" y="200" width="25" height="26" as="geometry" />
        </mxCell>
        <mxCell id="6Xl_yp25UxLdCeFqiYun-99" value="1..*" style="text;html=1;align=center;verticalAlign=middle;resizable=0;points=[];autosize=1;" parent="1" vertex="1">
          <mxGeometry x="284" y="226" width="36" height="26" as="geometry" />
        </mxCell>
        <mxCell id="6Xl_yp25UxLdCeFqiYun-100" value="*" style="text;html=1;align=center;verticalAlign=middle;resizable=0;points=[];autosize=1;" parent="1" vertex="1">
          <mxGeometry x="413" y="359" width="23" height="26" as="geometry" />
        </mxCell>
        <mxCell id="6Xl_yp25UxLdCeFqiYun-101" value="*" style="text;html=1;align=center;verticalAlign=middle;resizable=0;points=[];autosize=1;" parent="1" vertex="1">
          <mxGeometry x="438" y="381" width="23" height="26" as="geometry" />
        </mxCell>
        <mxCell id="6Xl_yp25UxLdCeFqiYun-111" value="*" style="text;html=1;align=center;verticalAlign=middle;resizable=0;points=[];autosize=1;" parent="1" vertex="1">
          <mxGeometry x="846" y="630" width="23" height="26" as="geometry" />
        </mxCell>
        <mxCell id="6Xl_yp25UxLdCeFqiYun-112" value="*" style="text;html=1;align=center;verticalAlign=middle;resizable=0;points=[];autosize=1;" parent="1" vertex="1">
          <mxGeometry x="846" y="548" width="23" height="26" as="geometry" />
        </mxCell>
        <mxCell id="6Xl_yp25UxLdCeFqiYun-116" value="" style="endArrow=diamondThin;endFill=1;endSize=24;html=1;rounded=0;" parent="1" source="6Xl_yp25UxLdCeFqiYun-92" target="6Xl_yp25UxLdCeFqiYun-21" edge="1">
          <mxGeometry width="160" relative="1" as="geometry">
            <mxPoint x="512" y="645" as="sourcePoint" />
            <mxPoint x="512" y="583" as="targetPoint" />
          </mxGeometry>
        </mxCell>
        <mxCell id="6Xl_yp25UxLdCeFqiYun-117" value="*" style="text;html=1;align=center;verticalAlign=middle;resizable=0;points=[];autosize=1;" parent="1" vertex="1">
          <mxGeometry x="284" y="604" width="23" height="26" as="geometry" />
        </mxCell>
        <mxCell id="6Xl_yp25UxLdCeFqiYun-118" value="*" style="text;html=1;align=center;verticalAlign=middle;resizable=0;points=[];autosize=1;" parent="1" vertex="1">
          <mxGeometry x="349" y="551" width="23" height="26" as="geometry" />
        </mxCell>
        <mxCell id="6Xl_yp25UxLdCeFqiYun-119" value="Atividade" style="swimlane;fontStyle=1;align=center;verticalAlign=top;childLayout=stackLayout;horizontal=1;startSize=26;horizontalStack=0;resizeParent=1;resizeParentMax=0;resizeLast=0;collapsible=1;marginBottom=0;whiteSpace=wrap;html=1;" parent="1" vertex="1">
          <mxGeometry x="389" y="893" width="225" height="86" as="geometry" />
        </mxCell>
        <mxCell id="6Xl_yp25UxLdCeFqiYun-120" value="- notasAlunos[]: Atividade" style="text;align=left;verticalAlign=top;spacingLeft=4;spacingRight=4;overflow=hidden;rotatable=0;points=[[0,0.5],[1,0.5]];portConstraint=eastwest;whiteSpace=wrap;html=1;" parent="6Xl_yp25UxLdCeFqiYun-119" vertex="1">
          <mxGeometry y="26" width="225" height="26" as="geometry" />
        </mxCell>
        <mxCell id="6Xl_yp25UxLdCeFqiYun-121" value="" style="line;strokeWidth=1;align=left;verticalAlign=middle;spacingTop=-1;spacingLeft=3;spacingRight=3;rotatable=0;labelPosition=right;points=[];portConstraint=eastwest;" parent="6Xl_yp25UxLdCeFqiYun-119" vertex="1">
          <mxGeometry y="52" width="225" height="8" as="geometry" />
        </mxCell>
        <mxCell id="6Xl_yp25UxLdCeFqiYun-122" value="- adicionarNota(Professor): boolean" style="text;align=left;verticalAlign=top;spacingLeft=4;spacingRight=4;overflow=hidden;rotatable=0;points=[[0,0.5],[1,0.5]];portConstraint=eastwest;whiteSpace=wrap;html=1;" parent="6Xl_yp25UxLdCeFqiYun-119" vertex="1">
          <mxGeometry y="60" width="225" height="26" as="geometry" />
        </mxCell>
        <mxCell id="6Xl_yp25UxLdCeFqiYun-124" value="" style="endArrow=block;html=1;rounded=0;endFill=0;" parent="1" source="6Xl_yp25UxLdCeFqiYun-119" target="6Xl_yp25UxLdCeFqiYun-29" edge="1">
          <mxGeometry width="50" height="50" relative="1" as="geometry">
            <mxPoint x="323.9999999999998" y="1155" as="sourcePoint" />
            <mxPoint x="373.9999999999998" y="1105" as="targetPoint" />
          </mxGeometry>
        </mxCell>
        <mxCell id="6Xl_yp25UxLdCeFqiYun-125" value="*" style="text;html=1;align=center;verticalAlign=middle;resizable=0;points=[];autosize=1;" parent="1" vertex="1">
          <mxGeometry x="500" y="870" width="23" height="26" as="geometry" />
        </mxCell>
        <mxCell id="6Xl_yp25UxLdCeFqiYun-126" value="*" style="text;html=1;align=center;verticalAlign=middle;resizable=0;points=[];autosize=1;" parent="1" vertex="1">
          <mxGeometry x="501" y="822" width="23" height="26" as="geometry" />
        </mxCell>
      </root>
    </mxGraphModel>
  </diagram>
</mxfile>
